:SAMPLES-PER-SECOND 30
:FULLY-SPECIFIED
:DEGREES
49
root  11.04873297 36.92333191 -7.62542214 -14.55760002 -49.24969864 11.02620029
lfemur  -23.32130051 1.803189993 -11.12349987
ltibia  -1.491570742e-006 -8.364404493e-007 58.03630066
lfoot  5.521815751e-007 -17.68009758 -2.382070303
ltoes  -4.250644065 -19.5611806 -102.515957
rfemur  -13.28510094 14.53909969 1.835210323
rtibia  -8.727266732e-007 2.533748784e-007 66.98519897
rfoot  -2.316020982e-006 -27.50999832 -12.7887001
rtoes  5.373923086 19.29304026 -105.8922705
lowerback  12.07019997 1.997979999 -2.977499962
upperback  4.258880138 2.235790014 0.6264979839
thorax  -2.442189932 1.061720014 2.016639948
rclavicle  0 -9.442270133e-015 7.951389973e-016
rhumerus  7.399139881 14.28180027 -72.88490295
rradius  -7.782816926e-012 0.001642658608 142.2720032
rwrist  0.002739921212 0.003270594636 -24.27669907
rthumb  -92.93752616 -24.25625642 -97.11982154
rhand  -7.920061211e-032 -33.2840004 9.303460121
rfingers  -90 -7.125020027 -90
lclavicle  0 -9.442270133e-015 7.951389973e-016
lhumerus  14.42470074 -4.304359436 63.84560013
lradius  1.032089952e-011 -0.003757435596 137.1439972
lwrist  1.816137865e-011 1.409039812e-011 14.87989998
lthumb  89.89689403 5.08795885 91.16245106
lhand  -1.496451383e-031 -27.76390076 20.11240005
lfingers  90 7.125020027 -90
lowerneck  -1.966560006 5.418759823 -4.978099823
upperneck  6.883190155 6.995969772 7.098060131
head  2.095249891 3.544100046 3.331629992
50
root  11.0130663 36.99266629 -7.783599914 -14.82199955 -49.03829956 11.34360027
lfemur  -23.16339302 1.122340441 -11.24510384
ltibia  -1.491570742e-006 -8.364404493e-007 57.50218582
lfoot  5.521815751e-007 -17.28429413 -1.861668944
ltoes  -4.250644065 -19.5611806 -102.515957
rfemur  -13.35849285 14.07590103 1.780647397
rtibia  -8.727266732e-007 2.533748784e-007 67.00808716
rfoot  -2.316020982e-006 -27.73259354 -12.69119835
rtoes  5.373923086 19.29304026 -105.8922705
lowerback  12.11390018 2.032210112 -3.55095005
upperback  4.274139881 2.21085 0.5704690218
thorax  -2.465950012 1.047180057 2.28373003
rclavicle  0 -9.442270133e-015 7.951389973e-016
rhumerus  7.71102047 14.54109955 -73.15570068
rradius  -7.782817793e-012 0.001642658608 142.2519989
rwrist  0.002739921212 0.003270594636 -24.5590992
rthumb  -92.93752616 -24.25625642 -97.11982154
rhand  -7.920061211e-032 -33.2840004 9.303460121
rfingers  -90 -7.125020027 -90
lclavicle  0 -9.442270133e-015 7.951389973e-016
lhumerus  15.00130177 -4.520539761 64.05760193
lradius  1.032089865e-011 -0.003757435596 137.095993
lwrist  1.816137865e-011 1.409039812e-011 14.89190006
lthumb  89.89689403 5.08795885 91.16245106
lhand  -1.496451383e-031 -27.76390076 20.11240005
lfingers  90 7.125020027 -90
lowerneck  -1.743109941 5.498660088 -5.254270077
upperneck  7.39966011 7.06785965 7.31885004
head  2.204430103 3.573839903 3.466409922
51
root  10.96782234 37.09799999 -7.937510933 -15.06639957 -48.86949921 11.6196003
lfemur  -22.92709541 0.4682863653 -11.39350414
ltibia  -1.491570742e-006 -8.364404493e-007 56.90568924
lfoot  5.521815751e-007 -16.71739388 -0.9939763546
ltoes  -4.250644065 -19.5611806 -102.515957
rfemur  -13.32639694 13.68640137 1.739978909
rtibia  -8.727266732e-007 2.533748784e-007 66.84709167
rfoot  -2.316020982e-006 -27.53069496 -12.56899834
rtoes  5.373923086 19.29304026 -105.8922705
lowerback  12.11540031 2.099319935 -3.925790071
upperback  4.315380096 2.25019002 0.4083220065
thorax  -2.432780027 1.064249992 2.320650101
rclavicle  0 -9.442270133e-015 7.951389973e-016
rhumerus  7.92592001 14.70240021 -73.5644989
rradius  -7.782816926e-012 0.001642658608 142.1640015
rwrist  0.002739921212 0.003270594636 -24.5958004
rthumb  -92.93752616 -24.25625642 -97.11982154
rhand  -7.920061211e-032 -33.2840004 9.303460121
rfingers  -90 -7.125020027 -90
lclavicle  0 -9.442270133e-015 7.951389973e-016
lhumerus  15.5683012 -4.908639908 64.23239899
lradius  1.032090038e-011 -0.003757435596 136.9929962
lwrist  1.816137865e-011 1.409039812e-011 14.8132
lthumb  89.89689403 5.08795885 91.16245106
lhand  -1.496451383e-031 -27.76390076 20.11240005
lfingers  90 7.125020027 -90
lowerneck  -1.286939979 5.515500069 -5.298230171
upperneck  7.66561985 7.054750443 7.373160362
head  2.206860065 3.558729887 3.481820107
52
root  10.92215561 37.23377919 -8.101622514 -14.93550014 -48.80929947 11.5564003
lfemur  -22.83680153 0.1009907052 -11.30069923
ltibia  -1.491570742e-006 -8.364404493e-007 56.25810242
lfoot  5.521815751e-007 -15.9008007 0.1699020565
ltoes  -4.250644065 -19.5611806 -102.515957
rfemur  -13.40559864 13.47550011 1.950349927
rtibia  -8.727266732e-007 2.533748784e-007 66.54969788
rfoot  -2.316020982e-006 -27.144701 -12.28499985
rtoes  5.373923086 19.29304026 -105.8922705
lowerback  11.87489986 2.090500116 -3.777090073
upperback  4.47217989 2.25515008 0.06079930067
thorax  -2.120019913 1.060520053 1.884430051
rclavicle  0 -9.442270133e-015 7.951389973e-016
rhumerus  8.360850334 14.64150047 -74.3042984
rradius  -7.782817793e-012 0.001642658608 142.0590057
rwrist  0.002739921212 0.003270594636 -24.60652542
rthumb  -92.93752616 -24.25625642 -97.11982154
rhand  -7.920061211e-032 -33.2840004 9.303460121
rfingers  -90 -7.125020027 -90
lclavicle  0 -9.442270133e-015 7.951389973e-016
lhumerus  16.35379791 -5.229691029 64.00360107
lradius  1.032089952e-011 -0.003757435596 136.8869934
lwrist  1.816137865e-011 1.409039812e-011 14.82320023
lthumb  89.89689403 5.08795885 91.16245106
lhand  -1.496451383e-031 -27.76390076 20.11240005
lfingers  90 7.125020027 -90
lowerneck  -1.115450025 5.549089909 -5.101610184
upperneck  7.991250038 7.056660175 7.525919437
head  2.284859896 3.564850092 3.502219915
